<svg width="59" height="56" viewBox="0 0 59 56" fill="none" xmlns="http://www.w3.org/2000/svg">
<rect width="59" height="56" rx="8" fill="#171D63"/>
<path d="M35.5095 43.9282H22.665C17.3357 43.9282 13 39.5925 13 34.2632V21.4187C13 16.0803 17.3357 11.7446 22.665 11.7446H35.5095C40.8388 11.7446 45.1745 16.0803 45.1745 21.4096V34.2542C45.1745 39.5835 40.8388 43.9192 35.5095 43.9192V43.9282ZM22.665 14.7706C19.0068 14.7706 16.026 17.7514 16.026 21.4096V34.2542C16.026 37.9124 19.0068 40.8932 22.665 40.8932H35.5095C39.1678 40.8932 42.1486 37.9124 42.1486 34.2542V21.4096C42.1486 17.7514 39.1678 14.7706 35.5095 14.7706H22.665Z" fill="white"/>
<circle cx="29.1232" cy="27.8706" r="5.92011" stroke="white" stroke-width="2"/>
</svg>
