<svg width="23" height="23" viewBox="0 0 23 23" fill="none" xmlns="http://www.w3.org/2000/svg">
<path d="M11.5 22.8385C17.8569 22.8385 23 17.7316 23 11.4193C23 5.10694 17.8569 0 11.5 0C5.14306 0 0 5.10694 0 11.4193C0 17.7316 5.14306 22.8385 11.5 22.8385ZM11.5 1.26881C17.1222 1.26881 21.7222 5.83651 21.7222 11.4193C21.7222 17.002 17.1222 21.5697 11.5 21.5697C5.87778 21.5697 1.27778 17.002 1.27778 11.4193C1.27778 5.83651 5.87778 1.26881 11.5 1.26881Z" fill="white"/>
<path d="M8.30382 16.3994C8.39965 16.4628 8.52743 16.4946 8.62326 16.4946C8.7191 16.4946 8.84688 16.4628 8.94271 16.3994L16.6094 11.9586C16.801 11.8317 16.9288 11.6414 16.9288 11.4193C16.9288 11.1973 16.801 10.9753 16.6094 10.8801L8.94271 6.43928C8.75104 6.3124 8.49549 6.3124 8.30382 6.43928C8.11215 6.56616 7.98438 6.75648 7.98438 6.97852V15.8602C7.98438 16.0822 8.11215 16.3042 8.30382 16.3994ZM9.26215 8.08872L15.0122 11.4193L9.26215 14.75V8.08872Z" fill="white"/>
</svg>
