<svg width="59" height="56" viewBox="0 0 59 56" fill="none" xmlns="http://www.w3.org/2000/svg">
<rect width="59" height="56" rx="8" fill="#171D63"/>
<g clip-path="url(#clip0_1729_95)">
<path d="M46 22.8934C46 19.0821 42.853 16 38.9812 16H21.0188C17.147 16 14 19.0908 14 22.8934V31.0979C14 34.9092 17.147 37.9913 21.0188 37.9913H38.9724C42.853 37.9913 45.9912 34.9006 45.9912 31.0979V22.8934H46ZM35.4365 27.6077L27.3834 31.5233C27.0652 31.6882 25.9956 31.4625 25.9956 31.1152V23.0845C25.9956 22.7285 27.074 22.5028 27.3923 22.6764L35.1006 26.7916C35.4276 26.974 35.7635 27.4341 35.4365 27.6077Z" fill="white"/>
</g>
<defs>
<clipPath id="clip0_1729_95">
<rect width="32" height="22" fill="white" transform="translate(14 16)"/>
</clipPath>
</defs>
</svg>
