<?xml version="1.0" standalone="no"?>
<!DOCTYPE svg PUBLIC "-//W3C//DTD SVG 20010904//EN"
 "http://www.w3.org/TR/2001/REC-SVG-20010904/DTD/svg10.dtd">
<svg version="1.0" xmlns="http://www.w3.org/2000/svg"
 width="592.000000pt" height="592.000000pt" viewBox="0 0 592.000000 592.000000"
 preserveAspectRatio="xMidYMid meet">
<metadata>
Created by potrace 1.14, written by Peter Selinger 2001-2017
</metadata>
<g transform="translate(0.000000,592.000000) scale(0.100000,-0.100000)"
fill="#000000" stroke="none">
<path d="M2900 5219 c-36 -11 -74 -21 -85 -23 -11 -3 -47 -12 -79 -21 -32 -8
-61 -13 -64 -10 -3 3 -11 0 -18 -5 -17 -15 -283 -82 -294 -75 -6 4 -10 2 -10
-4 0 -5 -28 -16 -62 -25 -35 -8 -92 -22 -128 -31 -36 -9 -72 -18 -80 -20 -8
-2 -55 -14 -105 -28 -49 -14 -101 -28 -115 -30 -14 -3 -60 -14 -104 -26 -43
-11 -84 -18 -90 -14 -6 3 -8 2 -3 -2 4 -5 -16 -15 -45 -22 -29 -7 -131 -34
-226 -59 -96 -25 -180 -43 -188 -40 -9 3 -12 1 -9 -4 3 -6 0 -10 -7 -11 -15
-1 -15 0 -148 -35 -58 -14 -107 -28 -109 -30 -2 -2 -4 -47 -5 -101 -1 -54 -5
-103 -9 -109 -3 -6 -3 -14 0 -18 4 -4 8 -16 10 -27 2 -14 -1 -18 -9 -13 -10 6
-10 4 -3 -7 6 -8 9 -70 8 -149 -1 -74 -3 -281 -4 -460 -1 -229 -4 -329 -12
-339 -9 -12 -9 -13 0 -7 10 5 13 -9 12 -63 -1 -38 2 -74 6 -80 3 -6 0 -11 -7
-11 -8 0 -9 -3 -3 -8 11 -7 17 -53 19 -139 1 -24 4 -43 7 -43 4 0 7 -10 7 -22
1 -35 9 -91 15 -108 7 -18 30 -123 30 -130 -1 -3 3 -13 8 -22 7 -13 6 -18 -3
-18 -9 0 -10 -3 -2 -8 14 -9 75 -192 68 -203 -3 -5 -1 -9 5 -9 5 0 15 -17 22
-37 10 -33 74 -176 98 -223 35 -66 87 -160 103 -182 11 -16 16 -28 11 -28 -4
0 -3 -4 2 -8 20 -14 46 -63 39 -74 -4 -7 -3 -8 4 -4 14 8 35 -30 26 -47 -4 -6
-4 -9 1 -5 12 11 98 -109 89 -123 -4 -7 -3 -9 3 -6 6 4 27 -18 47 -48 21 -29
46 -63 56 -75 10 -11 33 -40 52 -62 18 -23 45 -56 60 -74 15 -17 24 -34 20
-38 -4 -4 -2 -6 4 -4 6 2 24 -13 40 -32 16 -19 34 -39 42 -43 7 -5 10 -13 6
-18 -3 -5 -2 -8 3 -7 10 3 53 -33 53 -45 0 -4 -5 -5 -12 -1 -7 4 -8 3 -4 -5 4
-6 12 -9 17 -5 11 6 85 -65 82 -78 -2 -4 3 -7 10 -5 6 1 11 -4 10 -10 -2 -7 1
-12 5 -10 5 1 38 -23 73 -54 88 -77 173 -147 239 -194 30 -22 57 -43 58 -47 2
-5 8 -8 13 -8 8 0 35 -20 65 -48 8 -7 14 -11 14 -8 0 2 41 -20 90 -50 50 -30
95 -54 101 -54 5 0 12 -7 15 -15 4 -8 10 -12 15 -9 5 3 22 -4 38 -15 16 -12
36 -21 45 -21 9 0 16 -4 16 -10 0 -5 9 -10 19 -10 11 0 22 -4 25 -9 3 -5 16
-11 29 -15 13 -3 41 -13 63 -23 21 -9 41 -17 44 -18 3 -1 13 -5 22 -9 9 -4 34
-3 55 4 63 20 148 55 151 63 2 4 10 7 18 7 7 0 30 9 50 21 20 11 43 18 51 15
8 -4 11 -1 8 5 -7 10 23 24 35 17 3 -2 16 7 30 20 13 12 31 20 39 17 9 -3 12
-3 8 1 -7 7 10 19 63 46 14 7 27 15 30 18 3 3 39 27 80 54 79 51 243 170 271
196 23 22 63 55 69 57 3 1 50 45 104 98 55 52 103 95 108 95 4 0 8 7 8 15 0 8
7 15 15 15 8 0 15 5 15 10 0 16 82 95 94 92 6 -2 8 0 4 4 -12 11 88 132 105
126 5 -1 6 2 2 7 -3 6 2 18 12 28 10 10 38 46 62 78 25 33 48 61 53 63 4 2 8
10 8 18 0 8 5 14 10 14 6 0 10 7 10 15 0 9 7 18 15 21 8 4 12 10 9 15 -3 5 -1
9 3 9 5 0 17 16 27 35 11 19 23 35 27 35 4 0 11 10 15 22 3 12 21 44 39 72 33
53 73 123 109 191 12 22 24 42 29 43 4 2 7 10 7 17 0 7 13 39 29 71 30 62 87
211 117 307 10 31 22 57 26 57 5 0 7 4 4 9 -4 5 5 57 19 115 14 58 25 117 25
131 0 14 3 25 8 25 4 0 8 17 9 38 4 97 8 152 13 152 3 0 4 20 3 45 -1 24 3 47
8 50 5 4 6 11 3 17 -4 5 -6 49 -6 97 1 47 1 230 2 406 1 227 5 324 13 334 9
12 9 13 -1 7 -16 -9 -14 52 2 73 8 11 8 13 0 8 -8 -5 -12 11 -12 53 0 39 4 57
11 53 6 -4 7 -1 1 8 -13 21 -13 103 0 111 7 5 6 8 -4 8 -13 0 -13 1 0 10 8 5
10 10 4 10 -7 0 -10 19 -9 50 1 28 -2 53 -8 57 -5 3 -39 14 -76 23 -36 10
-100 28 -141 39 -41 12 -90 24 -107 28 -18 3 -33 10 -33 15 0 5 -4 7 -9 3 -5
-3 -29 1 -53 9 -38 12 -89 25 -103 27 -2 0 -19 5 -37 10 -64 20 -173 50 -203
55 -16 3 -32 9 -35 13 -3 3 -18 8 -35 10 -16 1 -35 7 -41 12 -7 5 -16 9 -20 7
-9 -2 -92 18 -124 30 -22 8 -28 9 -46 11 -8 0 -12 5 -9 11 3 6 -1 7 -10 4 -8
-4 -37 1 -63 9 -26 8 -73 21 -104 28 -32 7 -58 15 -58 18 0 4 -12 8 -27 9 -16
1 -50 10 -78 19 -27 9 -56 16 -64 14 -7 -1 -11 2 -8 6 3 5 -4 9 -16 9 -12 0
-39 4 -60 8 -33 7 -36 10 -25 25 11 14 11 14 -3 3 -14 -10 -36 -7 -130 19
-104 29 -159 43 -199 54 -8 2 -21 4 -28 4 -7 1 -11 4 -9 9 3 4 -5 7 -16 8 -12
1 -42 3 -67 6 -29 4 -69 -1 -110 -13z"/>
<path d="M1996 5118 c3 -5 10 -6 15 -3 13 9 11 12 -6 12 -8 0 -12 -4 -9 -9z"/>
<path d="M2370 5126 c0 -2 7 -7 16 -10 8 -3 12 -2 9 4 -6 10 -25 14 -25 6z"/>
<path d="M876 4082 c-3 -5 1 -9 9 -9 8 0 12 4 9 9 -3 4 -7 8 -9 8 -2 0 -6 -4
-9 -8z"/>
<path d="M825 3919 c-3 -4 2 -6 10 -5 21 3 28 13 10 13 -9 0 -18 -4 -20 -8z"/>
</g>
</svg>
